# xmcd CD database file
#
# Track frame offsets:
#	150
#	9757
#	16470
#	25630
#	41355
#
# Disc length: 720 seconds
#
# Revision: 0
# Processed by: cddbd v1.5.1PL0 Copyright (c) Steve Scherf et al.
# Submitted via: CDex 1.51
#
DISCID=2502ce05
DTITLE=つのだたかし - シチリアーナ　〜リュートのためのアリア〜
DYEAR=1999
DGENRE=Easy Listening
TTITLE0=シチリアーナ　〜リュートのためのアリア〜
TTITLE1=パヴァーナ
TTITLE2=ロビンは緑の森に去りき
TTITLE3=トッカータ6番
TTITLE4=ファンシー
EXTD=YEAR: 1999
EXTT0=
EXTT1=
EXTT2=
EXTT3=
EXTT4=
PLAYORDER=
